<?xml version="1.0" standalone="no"?>
<!DOCTYPE svg PUBLIC "-//W3C//DTD SVG 20010904//EN"
 "http://www.w3.org/TR/2001/REC-SVG-20010904/DTD/svg10.dtd">
<svg version="1.0" xmlns="http://www.w3.org/2000/svg"
 width="607.000000pt" height="607.000000pt" viewBox="0 0 607.000000 607.000000"
 preserveAspectRatio="xMidYMid meet">

<g transform="translate(0.000000,607.000000) scale(0.100000,-0.100000)"
fill="#000000" stroke="none">
<path d="M3057 6029 c-97 -14 -212 -69 -412 -194 -531 -333 -974 -488 -1582
-555 -200 -22 -267 -37 -346 -77 -103 -52 -188 -168 -223 -305 -22 -84 -31
-635 -15 -903 98 -1612 653 -2730 1776 -3575 278 -209 503 -340 665 -386 82
-24 104 -26 203 -22 161 7 253 44 472 186 563 365 1070 912 1437 1551 379 661
609 1400 693 2231 24 233 31 791 12 901 -19 109 -57 187 -122 248 -110 104
-237 143 -559 171 -502 44 -978 216 -1428 518 -294 196 -402 237 -571 211z
m192 -578 c162 -116 317 -209 516 -306 421 -207 832 -322 1349 -379 102 -11
133 -18 143 -32 35 -48 -5 -653 -68 -1034 -204 -1233 -726 -2171 -1597 -2869
-139 -112 -299 -224 -376 -263 -84 -43 -160 -38 -266 16 -257 132 -585 373
-829 611 -595 579 -959 1344 -1100 2310 -43 294 -53 426 -58 812 l-6 382 29
29 c26 26 41 30 159 46 767 105 1254 282 1838 668 70 46 129 78 144 78 16 0
63 -27 122 -69z"/>
<path d="M2870 4831 c-288 -63 -522 -290 -590 -572 -17 -74 -20 -118 -20 -361
l0 -278 155 0 155 0 0 228 c0 125 5 259 10 297 25 175 152 321 324 370 94 28
234 17 320 -23 92 -43 177 -126 222 -217 44 -88 54 -172 54 -452 l0 -203 155
0 155 0 0 259 c0 286 -8 357 -57 482 -88 225 -288 400 -528 464 -95 26 -254
28 -355 6z"/>
<path d="M2085 3451 c-49 -22 -91 -69 -105 -119 -8 -25 -10 -248 -8 -703 l3
-665 28 -42 c15 -23 45 -51 67 -62 38 -20 56 -20 960 -20 751 0 927 2 953 14
39 16 94 76 104 114 5 15 8 326 8 692 l0 665 -27 47 c-15 25 -45 57 -65 70
l-38 23 -920 2 c-876 3 -922 2 -960 -16z m1743 -140 c47 -24 77 -56 97 -103
13 -32 15 -110 15 -551 0 -362 -3 -524 -12 -548 -17 -53 -46 -87 -91 -112
l-42 -22 -755 0 c-415 0 -767 3 -782 8 -38 10 -98 65 -114 104 -11 26 -14 140
-14 562 0 461 2 536 16 570 16 39 61 83 106 101 13 5 343 9 781 9 726 1 759 0
795 -18z"/>
<path d="M2405 3201 c-67 -17 -117 -65 -135 -129 -15 -54 -14 -799 2 -843 15
-46 43 -80 86 -106 l37 -23 633 0 c602 0 635 1 670 19 45 23 77 56 91 94 7 18
11 174 11 443 0 356 -2 419 -16 445 -19 38 -44 63 -86 86 -31 17 -76 18 -648
20 -338 1 -628 -2 -645 -6z m720 -254 c81 -46 123 -148 95 -232 -7 -21 -28
-55 -47 -75 -33 -38 -34 -39 -36 -142 -2 -71 -7 -110 -17 -126 -31 -47 -128
-53 -166 -11 -16 17 -20 40 -22 133 -4 111 -4 111 -37 146 -42 44 -55 77 -55
144 0 140 162 233 285 163z"/>
</g>
</svg>
